<svg width="211" height="173" viewBox="0 0 211 173" fill="none" xmlns="http://www.w3.org/2000/svg">
<g id="plane 1" clip-path="url(#clip0_31_70)">
<g id="Group">
<path id="Vector" d="M7.15347 47.1814L196.028 1.832L198.483 1.24389C199.733 0.941911 201.042 0.99915 202.261 1.40903C203.48 1.81891 204.559 2.56476 205.373 3.56086C206.187 4.55694 206.704 5.76282 206.864 7.03976C207.024 8.31673 206.82 9.61296 206.277 10.7793L134.437 165.693C133.972 166.688 133.274 167.557 132.404 168.227C131.533 168.896 130.514 169.346 129.434 169.539C128.349 169.734 127.234 169.661 126.184 169.328C125.134 168.994 124.181 168.41 123.407 167.625L69.7893 113.587C69.4078 113.193 68.9489 112.882 68.4411 112.674C67.9335 112.466 67.3885 112.365 66.8402 112.378C66.0944 112.385 65.3646 112.594 64.7289 112.984C64.0932 113.374 63.5751 113.93 63.2305 114.591L52.9652 134.687C52.3112 136.027 51.2283 137.108 49.889 137.76C48.5497 138.412 47.0309 138.597 45.5744 138.285L45.5209 138.274C44.0474 137.997 42.71 137.233 41.7235 136.103C40.7371 134.973 40.1587 133.545 40.0814 132.046L36.8791 86.2766C36.8404 85.7055 36.6849 85.1484 36.4221 84.6399C36.1411 84.1372 35.7652 83.694 35.3152 83.3347L4.54494 59.2186C3.53353 58.426 2.76572 57.3641 2.32952 56.1548C1.89332 54.9455 1.80637 53.6377 2.07866 52.3815C2.35094 51.1249 2.97139 49.9707 3.86896 49.0509C4.76655 48.1314 5.90485 47.4834 7.15347 47.1814ZM6.22099 57.0696L36.9912 81.1859C37.3921 81.4943 37.7569 81.8465 38.0791 82.2363L196.465 5.90239C196.605 5.83341 196.751 5.77834 196.901 5.73791C197.515 5.56445 198.17 5.6111 198.753 5.86977C199.336 6.12847 199.81 6.58293 200.094 7.15459C200.378 7.72625 200.453 8.37911 200.306 9.00031C200.16 9.62151 199.801 10.172 199.292 10.5565L69.9152 110.338C70.591 110.671 71.2045 111.117 71.729 111.658L125.346 165.695C125.812 166.163 126.383 166.512 127.011 166.712C127.64 166.911 128.308 166.956 128.957 166.842C129.607 166.728 130.22 166.459 130.743 166.058C131.267 165.657 131.686 165.134 131.964 164.536L203.805 9.62257C204.126 8.9227 204.244 8.14666 204.146 7.38286C204.048 6.61906 203.737 5.8982 203.25 5.30244C202.762 4.70668 202.117 4.25996 201.388 4.01315C200.659 3.76636 199.876 3.7294 199.127 3.90651L196.614 4.51081L7.79844 49.8442C7.04875 50.0249 6.36505 50.4131 5.82559 50.9645C5.28611 51.516 4.9127 52.2082 4.7481 52.9622C4.58348 53.7164 4.63434 54.5014 4.89481 55.2278C5.15532 55.9542 5.6149 56.5924 6.22099 57.0696Z" fill="#5156B8"/>
<path id="Vector_2" d="M7.15347 47.1814L196.028 1.832L198.483 1.24389C199.733 0.941911 201.042 0.99915 202.261 1.40903C203.48 1.81891 204.559 2.56476 205.373 3.56086C206.187 4.55694 206.704 5.76282 206.864 7.03976C207.024 8.31673 206.82 9.61296 206.277 10.7793L134.437 165.693C133.972 166.688 133.274 167.557 132.404 168.227C131.533 168.896 130.514 169.346 129.434 169.539C128.349 169.734 127.234 169.661 126.184 169.328C125.134 168.994 124.181 168.41 123.407 167.625L69.7893 113.587C69.4078 113.193 68.9489 112.882 68.4411 112.674C67.9335 112.466 67.3885 112.365 66.8402 112.378C66.0944 112.385 65.3646 112.594 64.7289 112.984C64.0932 113.374 63.5751 113.93 63.2305 114.591L52.9652 134.687C52.3112 136.027 51.2283 137.108 49.889 137.76C48.5497 138.412 47.0309 138.597 45.5744 138.285L45.5209 138.274C44.0474 137.997 42.71 137.233 41.7235 136.103C40.7371 134.973 40.1587 133.545 40.0814 132.046L36.8791 86.2766C36.8404 85.7055 36.6849 85.1484 36.4221 84.6399C36.1411 84.1372 35.7652 83.694 35.3152 83.3347L4.54494 59.2186C3.53353 58.426 2.76572 57.3641 2.32952 56.1548C1.89332 54.9455 1.80637 53.6377 2.07866 52.3815C2.35094 51.1249 2.97139 49.9707 3.86896 49.0509C4.76655 48.1314 5.90485 47.4834 7.15347 47.1814ZM6.22099 57.0696L36.9912 81.1859C37.3921 81.4943 37.7569 81.8465 38.0791 82.2363C38.3694 82.5831 38.6217 82.9598 38.8321 83.3605C39.0522 83.7697 39.2283 84.2015 39.3573 84.6481L39.3545 84.6616C39.4906 85.1269 39.5738 85.606 39.6027 86.0897L42.8043 131.859C42.843 132.76 43.1868 133.62 43.7789 134.299C44.3712 134.978 45.1768 135.435 46.063 135.595L46.0899 135.6C46.9639 135.797 47.8787 135.692 48.6857 135.302C49.4927 134.913 50.1446 134.262 50.5356 133.455L60.8037 113.346C61.3326 112.312 62.1169 111.43 63.0824 110.784C64.0476 110.138 65.1616 109.75 66.3191 109.656L66.332 109.659C66.4878 109.648 66.6429 109.637 66.7954 109.639C67.8766 109.615 68.9477 109.855 69.9152 110.338C70.591 110.671 71.2045 111.117 71.729 111.658L125.346 165.695C125.812 166.163 126.383 166.512 127.011 166.712C127.64 166.911 128.308 166.956 128.957 166.842C129.607 166.728 130.22 166.459 130.743 166.058C131.267 165.657 131.686 165.134 131.964 164.536L203.805 9.62257C204.126 8.9227 204.244 8.14666 204.146 7.38286C204.048 6.61906 203.737 5.8982 203.25 5.30244C202.762 4.70668 202.117 4.25996 201.388 4.01315C200.659 3.76636 199.876 3.7294 199.127 3.90651L196.614 4.51081L7.79844 49.8442C7.04875 50.0249 6.36505 50.4131 5.82559 50.9645C5.28611 51.516 4.9127 52.2082 4.7481 52.9622C4.58348 53.7164 4.63434 54.5014 4.89481 55.2278C5.15532 55.9542 5.6149 56.5924 6.22099 57.0696Z" fill="#D478D1"/>
<path id="Vector_3" d="M37.4785 82.5221L38.6636 84.9853L39.3534 84.6617L39.3561 84.6482L197.617 8.38713L66.3309 109.659L66.3177 109.656L65.9705 109.936L67.6314 112.103L69.9141 110.339L199.291 10.5564C199.8 10.1719 200.159 9.62146 200.305 9.00026C200.451 8.37905 200.376 7.72617 200.093 7.15451C199.809 6.58285 199.335 6.12839 198.752 5.86969C198.169 5.61099 197.514 5.56434 196.9 5.73781C196.75 5.77825 196.604 5.83335 196.464 5.90236L38.0777 82.2364L37.4785 82.5221Z" fill="#5156B8"/>
</g>
</g>
<defs>
<clipPath id="clip0_31_70">
<rect width="206" height="167" fill="white" transform="translate(0.8125 5.63666) rotate(-1.3182)"/>
</clipPath>
</defs>
</svg>
