<svg width="233" height="201" viewBox="0 0 233 201" fill="none" xmlns="http://www.w3.org/2000/svg">
<g id="plane 1" clip-path="url(#clip0_31_70)">
<g id="Group">
<path id="Vector" d="M27.4197 41.9755L221.542 35.1403L224.064 35.0526C225.35 35.0056 226.622 35.3224 227.735 35.9668C228.848 36.6112 229.756 37.5569 230.356 38.6951C230.955 39.8334 231.222 41.118 231.124 42.4013C231.027 43.6845 230.569 44.9143 229.805 45.9491L128.558 183.457C127.904 184.34 127.048 185.053 126.061 185.535C125.075 186.018 123.987 186.256 122.889 186.23C121.788 186.205 120.71 185.912 119.747 185.376C118.785 184.84 117.967 184.078 117.365 183.155L75.5796 119.523C75.2842 119.061 74.8964 118.665 74.4402 118.359C73.9842 118.055 73.4701 117.847 72.9302 117.751C72.1981 117.609 71.4412 117.669 70.7406 117.924C70.04 118.18 69.4217 118.621 68.9522 119.201L54.8912 136.851C53.9836 138.033 52.707 138.877 51.2647 139.25C49.8224 139.622 48.2973 139.501 46.932 138.905L46.8817 138.884C45.4928 138.319 44.3345 137.303 43.5927 136C42.8509 134.696 42.5686 133.181 42.7913 131.697L48.766 86.2065C48.8419 85.6391 48.8004 85.0622 48.6441 84.5115C48.4688 83.963 48.1886 83.4538 47.8192 83.0121L22.4667 53.2523C21.6334 52.2742 21.0924 51.0806 20.9057 49.8087C20.719 48.5368 20.8942 47.2379 21.4111 46.061C21.9282 44.8838 22.766 43.8763 23.8287 43.1536C24.8914 42.4312 26.136 42.0228 27.4197 41.9755ZM24.5371 51.48L49.8895 81.24C50.221 81.622 50.5084 82.0398 50.7465 82.486L221.16 39.2161C221.31 39.1763 221.464 39.1515 221.62 39.1418C222.256 39.094 222.888 39.2701 223.408 39.6397C223.928 40.0093 224.302 40.5491 224.466 41.1658C224.631 41.7825 224.574 42.4372 224.307 43.0168C224.04 43.5964 223.579 44.0645 223.004 44.34L76.3498 116.364C76.9459 116.824 77.4583 117.384 77.8646 118.018L119.649 181.649C120.012 182.201 120.502 182.656 121.079 182.977C121.655 183.298 122.3 183.475 122.959 183.493C123.619 183.51 124.273 183.369 124.866 183.08C125.459 182.79 125.973 182.362 126.366 181.831L227.612 44.3232C228.066 43.7013 228.336 42.9643 228.392 42.1963C228.448 41.4282 228.287 40.66 227.928 39.979C227.569 39.2981 227.026 38.7319 226.36 38.3449C225.695 37.9579 224.935 37.7658 224.166 37.7902L221.583 37.8821L27.5216 44.7133C26.7509 44.7411 26.0036 44.9855 25.3652 45.4185C24.7267 45.8514 24.2229 46.4555 23.9115 47.1615C23.6 47.8679 23.4935 48.6474 23.6042 49.411C23.7148 50.1747 24.0381 50.8917 24.5371 51.48Z" fill="#5156B8"/>
<path id="Vector_2" d="M27.4197 41.9755L221.542 35.1403L224.064 35.0526C225.35 35.0056 226.622 35.3224 227.735 35.9668C228.848 36.6112 229.756 37.5569 230.356 38.6951C230.955 39.8334 231.222 41.118 231.124 42.4013C231.027 43.6845 230.569 44.9143 229.805 45.9491L128.558 183.457C127.904 184.34 127.048 185.053 126.061 185.535C125.075 186.018 123.987 186.256 122.889 186.23C121.788 186.205 120.71 185.912 119.747 185.376C118.785 184.84 117.967 184.078 117.365 183.155L75.5796 119.523C75.2842 119.061 74.8964 118.665 74.4402 118.359C73.9842 118.055 73.4701 117.847 72.9302 117.751C72.1981 117.609 71.4412 117.669 70.7406 117.924C70.04 118.18 69.4217 118.621 68.9522 119.201L54.8912 136.851C53.9836 138.033 52.707 138.877 51.2647 139.25C49.8224 139.622 48.2973 139.501 46.932 138.905L46.8817 138.884C45.4928 138.319 44.3345 137.303 43.5927 136C42.8509 134.696 42.5686 133.181 42.7913 131.697L48.766 86.2065C48.8419 85.6391 48.8004 85.0622 48.6441 84.5115C48.4688 83.963 48.1886 83.4538 47.8192 83.0121L22.4667 53.2523C21.6334 52.2742 21.0924 51.0806 20.9057 49.8087C20.719 48.5368 20.8942 47.2379 21.4111 46.061C21.9282 44.8838 22.766 43.8763 23.8287 43.1536C24.8914 42.4312 26.136 42.0228 27.4197 41.9755ZM24.5371 51.48L49.8895 81.24C50.221 81.622 50.5084 82.0398 50.7465 82.486C50.9619 82.8836 51.1342 83.303 51.2606 83.7376C51.3948 84.1824 51.4813 84.6407 51.5188 85.104L51.5134 85.1167C51.5542 85.5997 51.5403 86.0858 51.4723 86.5656L45.4968 132.056C45.3555 132.946 45.5211 133.858 45.9661 134.641C46.4114 135.425 47.1098 136.033 47.9464 136.366L47.9717 136.377C48.7892 136.743 49.7066 136.822 50.575 136.601C51.4434 136.38 52.2118 135.872 52.7555 135.16L66.8219 117.497C67.5462 116.589 68.4904 115.881 69.5651 115.44C70.6396 115 71.8086 114.841 72.9615 114.98L72.9737 114.985C73.1286 115.005 73.2827 115.025 73.4318 115.058C74.4962 115.249 75.498 115.698 76.3498 116.364C76.9459 116.824 77.4583 117.384 77.8646 118.018L119.649 181.649C120.012 182.201 120.502 182.656 121.079 182.977C121.655 183.298 122.3 183.475 122.959 183.493C123.619 183.51 124.273 183.369 124.866 183.08C125.459 182.79 125.973 182.362 126.366 181.831L227.612 44.3232C228.066 43.7013 228.336 42.9643 228.392 42.1963C228.448 41.4282 228.287 40.66 227.928 39.979C227.569 39.2981 227.026 38.7319 226.36 38.3449C225.695 37.9579 224.935 37.7658 224.166 37.7902L221.583 37.8821L27.5216 44.7133C26.7509 44.7411 26.0036 44.9855 25.3652 45.4185C24.7267 45.8514 24.2229 46.4555 23.9115 47.1615C23.6 47.8679 23.4935 48.6474 23.6042 49.411C23.7148 50.1747 24.0381 50.8917 24.5371 51.48Z" fill="#D478D1"/>
<path id="Vector_3" d="M50.101 82.6465L50.7719 85.2964L51.5124 85.1165L51.5178 85.1039L221.794 41.8805L72.9726 114.985L72.9602 114.979L72.5642 115.184L73.7605 117.638L76.3487 116.364L223.002 44.3397C223.578 44.0642 224.039 43.5962 224.306 43.0166C224.573 42.437 224.629 41.7822 224.465 41.1655C224.301 40.5488 223.927 40.009 223.407 39.6394C222.887 39.2698 222.255 39.0937 221.619 39.1415C221.463 39.1512 221.309 39.1761 221.158 39.2159L50.7451 82.4858L50.101 82.6465Z" fill="#5156B8"/>
</g>
</g>
<defs>
<clipPath id="clip0_31_70">
<rect width="206" height="167" fill="white" transform="translate(29.4775) rotate(10.1665)"/>
</clipPath>
</defs>
</svg>
